<svg width="21" height="21" viewBox="0 0 21 21" fill="none" xmlns="http://www.w3.org/2000/svg">
<path fill-rule="evenodd" clip-rule="evenodd" d="M5.31694 0.683058C5.19973 0.565848 5.04076 0.5 4.875 0.5C4.70924 0.5 4.55027 0.565848 4.43306 0.683058C4.31585 0.800269 4.25 0.95924 4.25 1.125V1.75H3C2.33696 1.75 1.70107 2.01339 1.23223 2.48223C0.763392 2.95107 0.5 3.58696 0.5 4.25V18C0.5 18.663 0.763392 19.2989 1.23223 19.7678C1.70107 20.2366 2.33696 20.5 3 20.5H18C18.663 20.5 19.2989 20.2366 19.7678 19.7678C20.2366 19.2989 20.5 18.663 20.5 18V4.25C20.5 3.58696 20.2366 2.95107 19.7678 2.48223C19.2989 2.01339 18.663 1.75 18 1.75H16.75V1.125C16.75 0.95924 16.6842 0.800269 16.5669 0.683058C16.4497 0.565848 16.2908 0.5 16.125 0.5C15.9592 0.5 15.8003 0.565848 15.6831 0.683058C15.5658 0.800269 15.5 0.95924 15.5 1.125V1.75H5.5V1.125C5.5 0.95924 5.43415 0.800269 5.31694 0.683058ZM1.75 18V5.5H19.25V18C19.25 18.3315 19.1183 18.6495 18.8839 18.8839C18.6495 19.1183 18.3315 19.25 18 19.25H3C2.66848 19.25 2.35054 19.1183 2.11612 18.8839C1.8817 18.6495 1.75 18.3315 1.75 18ZM12.5108 12.0458H7.50333H7.5025V13.8633H10.5108C10.3892 14.6433 9.60167 16.1517 7.50333 16.1517C5.6925 16.1517 4.215 14.6517 4.215 12.8033C4.215 10.9542 5.6925 9.45417 7.50333 9.45417C8.53333 9.45417 9.2225 9.89417 9.61667 10.2725L11.0558 8.88667C10.1317 8.0225 8.935 7.5 7.50333 7.5C6.80674 7.49945 6.11687 7.63625 5.47319 7.90258C4.82951 8.1689 4.24466 8.55952 3.75209 9.05209C3.25952 9.54466 2.8689 10.1295 2.60258 10.7732C2.33625 11.4169 2.19945 12.1067 2.2 12.8033C2.19956 13.4998 2.33642 14.1895 2.60274 14.833C2.86906 15.4766 3.25962 16.0613 3.75209 16.5537C4.24456 17.0462 4.82928 17.4368 5.4728 17.7031C6.11633 17.9694 6.80604 18.1063 7.5025 18.1058C10.5633 18.1058 12.5942 15.9542 12.5942 12.9242C12.5942 12.5758 12.5558 12.3108 12.5108 12.0458ZM17.3517 13.5608H18.8667V12.0458H17.3517V10.53H15.8367V12.0458H14.3208V13.5608H15.8367V15.0758H17.3517V13.5608Z" fill="#FEFEFE"/>
</svg>
