<svg width="22" height="22" viewBox="0 0 22 22" fill="none" xmlns="http://www.w3.org/2000/svg">
<g clip-path="url(#clip0_194_795)">
<path d="M10.5981 10.6274C10.2148 10.9844 7.14325 13.9644 7.14325 13.9644L7.96323 14.7729C7.96323 14.7729 10.6922 12.2542 11.1021 11.8733C11.2035 11.7794 11.3751 11.6006 11.6924 11.6006H20.9996V10.3117H11.3688C11.0873 10.3121 10.8205 10.4223 10.5981 10.6271V10.6274ZM16.1122 3.6216C17.2036 3.6216 17.7991 2.86593 17.7991 1.93471C17.799 1.60117 17.7001 1.27513 17.5147 0.997829C17.3294 0.720525 17.066 0.504405 16.7578 0.376794C16.4496 0.249183 16.1106 0.215811 15.7834 0.280898C15.4563 0.345985 15.1558 0.506607 14.92 0.742458C14.6841 0.978308 14.5235 1.27879 14.4584 1.60593C14.3933 1.93306 14.4267 2.27214 14.5543 2.58031C14.6819 2.88847 14.898 3.15188 15.1753 3.33723C15.4526 3.52257 15.7787 3.62154 16.1122 3.6216V3.6216ZM13.6112 6.52026H14.1769L13.3481 9.49799H18.877L18.0475 6.52026H18.6132L19.4735 9.49799H20.935L19.7603 5.54671C19.6051 5.00104 18.9151 4.03438 17.7204 4.03438H14.5041C13.31 4.03438 12.6206 5.00104 12.4641 5.54671L11.2911 9.49799H12.7525L13.6112 6.52026V6.52026ZM8.82915 9.3418L7.34439 6.57341C7.34439 6.57341 7.2571 6.44151 7.09534 6.51993C6.94998 6.59015 7.0156 6.75388 7.0156 6.75388L7.50812 7.69396L7.81459 8.27966L7.4612 8.12052C6.83514 7.83834 6.48995 7.71791 6.35148 7.6559C6.32687 7.64441 6.20546 7.5778 6.14771 7.45082C5.98365 7.08398 5.28311 5.31079 5.12593 4.91868C4.99304 4.58694 4.66525 4.11576 3.99161 3.94907C3.22478 3.75941 2.45171 4.24307 2.26928 5.01252L1.22289 9.42285C1.1297 9.77854 0.969574 10.7406 0.969574 11.1462L0.976465 19.7608C0.981715 20.4876 1.50639 21.0736 2.23253 21.0703C2.95768 21.068 3.45414 20.4771 3.45184 19.7512L3.4502 12.4531L4.56615 7.74285C4.69642 8.06146 4.85786 8.44963 4.91068 8.54282C5.03636 8.76266 5.16039 8.91393 5.4137 9.03304C5.4137 9.03304 6.87418 9.63744 7.43954 9.89535C7.60101 9.95706 7.77799 9.96544 7.94456 9.91926C8.11113 9.87309 8.25853 9.77479 8.36518 9.63876L8.44328 9.47699L8.47018 9.52851C8.47018 9.52851 8.63654 9.82152 8.88231 9.83498C8.95286 9.61152 8.82948 9.3418 8.82948 9.3418H8.82915ZM6.57165 1.92027C6.57165 2.14182 6.52801 2.3612 6.44323 2.56588C6.35845 2.77056 6.23418 2.95654 6.07753 3.1132C5.92087 3.26986 5.73489 3.39412 5.53021 3.47891C5.32552 3.56369 5.10614 3.60733 4.8846 3.60733C4.66305 3.60733 4.44367 3.56369 4.23899 3.47891C4.03431 3.39412 3.84833 3.26986 3.69167 3.1132C3.53501 2.95654 3.41074 2.77056 3.32596 2.56588C3.24118 2.3612 3.19754 2.14182 3.19754 1.92027C3.20373 1.47691 3.38419 1.05381 3.6999 0.742467C4.01561 0.431127 4.44119 0.256581 4.8846 0.256581C5.328 0.256581 5.75358 0.431127 6.06929 0.742467C6.38501 1.05381 6.56547 1.47691 6.57165 1.92027V1.92027Z" fill="white"/>
<path d="M7.33161 12.9285L10.6188 9.8691L10.1915 9.41071L6.90439 12.4705L7.33161 12.9285Z" fill="#F4F4F4" fill-opacity="0.71"/>
</g>
<defs>
<clipPath id="clip0_194_795">
<rect width="21" height="21" fill="white" transform="translate(0.526611 0.0703125)"/>
</clipPath>
</defs>
</svg>
