<svg width="29" height="31" viewBox="0 0 29 31" fill="none" xmlns="http://www.w3.org/2000/svg">
<g clip-path="url(#clip0_88_380)">
<path d="M26.4444 6.25H4.11111C3.61751 6.25 3.14413 6.44754 2.79511 6.79917C2.44608 7.15081 2.25 7.62772 2.25 8.125V23.125C2.25 23.6223 2.44608 24.0992 2.79511 24.4508C3.14413 24.8025 3.61751 25 4.11111 25H26.4444C26.938 25 27.4114 24.8025 27.7604 24.4508C28.1095 24.0992 28.3056 23.6223 28.3056 23.125V8.125C28.3056 7.62772 28.1095 7.15081 27.7604 6.79917C27.4114 6.44754 26.938 6.25 26.4444 6.25V6.25ZM24.3972 8.125L15.2778 14.4812L6.15833 8.125H24.3972ZM4.11111 23.125V8.97812L14.7474 16.3937C14.9031 16.5026 15.0882 16.561 15.2778 16.561C15.4674 16.561 15.6524 16.5026 15.8082 16.3937L26.4444 8.97812V23.125H4.11111Z" fill="white"/>
</g>
<defs>
<clipPath id="clip0_88_380">
<rect width="28" height="30" fill="white" transform="translate(0.5 0.625)"/>
</clipPath>
</defs>
</svg>
