<svg width="25" height="24" viewBox="0 0 25 24" fill="none" xmlns="http://www.w3.org/2000/svg">
<path d="M9.1665 0V10.5H12.1665V7.5C12.1665 5.22 14.3415 3 16.6665 3V4.29C17.4915 3.51 18.5565 3 19.6665 3V7.5H21.1665C22.8165 7.5 24.1665 8.85 24.1665 10.5C24.1665 12.15 22.8165 13.5 21.1665 13.5H19.6665V22.5C19.6665 23.325 18.9915 24 18.1665 24C17.3415 24 16.6665 23.325 16.6665 22.5V19.23C16.2015 19.395 15.6915 19.5 15.1665 19.5V22.5C15.1665 23.325 14.4915 24 13.6665 24C12.8415 24 12.1665 23.325 12.1665 22.5V19.5H9.1665V22.5C9.1665 23.325 8.4915 24 7.6665 24C6.8415 24 6.1665 23.325 6.1665 22.5V19.5C5.6415 19.5 5.1315 19.395 4.6665 19.23V22.5C4.6665 23.325 3.9915 24 3.1665 24C2.3415 24 1.6665 23.325 1.6665 22.5V16.5H0.166504V15C0.166504 12.51 2.1765 10.5 4.6665 10.5H7.6665V0H9.1665ZM16.6665 10.5C17.4915 10.5 18.1665 9.825 18.1665 9C18.1665 8.175 17.4915 7.5 16.6665 7.5C15.8415 7.5 15.1665 8.175 15.1665 9C15.1665 9.825 15.8415 10.5 16.6665 10.5Z" fill="black"/>
</svg>
