<svg width="29" height="29" viewBox="0 0 29 29" fill="none" xmlns="http://www.w3.org/2000/svg">
<path fill-rule="evenodd" clip-rule="evenodd" d="M6.84675 0.51678C6.68265 0.352685 6.46009 0.260498 6.22803 0.260498C5.99596 0.260498 5.7734 0.352685 5.60931 0.51678C5.44521 0.680874 5.35303 0.903434 5.35303 1.1355V2.0105H3.60303C2.67477 2.0105 1.78453 2.37925 1.12815 3.03562C0.471776 3.692 0.103027 4.58224 0.103027 5.5105V24.7605C0.103027 25.6888 0.471776 26.579 1.12815 27.2354C1.78453 27.8917 2.67477 28.2605 3.60303 28.2605H24.603C25.5313 28.2605 26.4215 27.8917 27.0779 27.2354C27.7343 26.579 28.103 25.6888 28.103 24.7605V5.5105C28.103 4.58224 27.7343 3.692 27.0779 3.03562C26.4215 2.37925 25.5313 2.0105 24.603 2.0105H22.853V1.1355C22.853 0.903434 22.7608 0.680874 22.5967 0.51678C22.4327 0.352685 22.2101 0.260498 21.978 0.260498C21.746 0.260498 21.5234 0.352685 21.3593 0.51678C21.1952 0.680874 21.103 0.903434 21.103 1.1355V2.0105H7.10303V1.1355C7.10303 0.903434 7.01084 0.680874 6.84675 0.51678ZM1.85303 24.7605V7.2605H26.353V24.7605C26.353 25.2246 26.1687 25.6697 25.8405 25.9979C25.5123 26.3261 25.0672 26.5105 24.603 26.5105H3.60303C3.1389 26.5105 2.69378 26.3261 2.36559 25.9979C2.0374 25.6697 1.85303 25.2246 1.85303 24.7605ZM16.9182 16.4247H9.9077H9.90653V18.9692H14.1182C13.9479 20.0612 12.8454 22.1728 9.9077 22.1728C7.37253 22.1728 5.30403 20.0728 5.30403 17.4852C5.30403 14.8963 7.37253 12.7963 9.9077 12.7963C11.3497 12.7963 12.3145 13.4123 12.8664 13.942L14.8812 12.0018C13.5874 10.792 11.912 10.0605 9.9077 10.0605C8.93246 10.0597 7.96664 10.2513 7.06549 10.6241C6.16434 10.997 5.34555 11.5438 4.65595 12.2334C3.96636 12.923 3.41949 13.7418 3.04664 14.643C2.67378 15.5441 2.48226 16.5099 2.48303 17.4852C2.48242 18.4602 2.67401 19.4258 3.04686 20.3267C3.41971 21.2277 3.9665 22.0463 4.65595 22.7357C5.34541 23.4252 6.16402 23.972 7.06495 24.3448C7.96589 24.7177 8.93149 24.9093 9.90653 24.9087C14.1917 24.9087 17.0349 21.8963 17.0349 17.6543C17.0349 17.1667 16.9812 16.7957 16.9182 16.4247ZM23.6954 18.5457H25.8164V16.4247H23.6954V14.3025H21.5744V16.4247H19.4522V18.5457H21.5744V20.6667H23.6954V18.5457Z" fill="black"/>
</svg>
