<svg width="55" height="55" viewBox="0 0 55 55" fill="none" xmlns="http://www.w3.org/2000/svg">
<g clip-path="url(#clip0_120_257)">
<path d="M16.4172 30.9275C17.4401 30.9275 18.4212 30.5211 19.1446 29.7977C19.8679 29.0744 20.2743 28.0933 20.2743 27.0703C20.2743 26.0473 19.8679 25.0663 19.1446 24.3429C18.4212 23.6195 17.4401 23.2132 16.4172 23.2132C15.3942 23.2132 14.4131 23.6195 13.6897 24.3429C12.9664 25.0663 12.56 26.0473 12.56 27.0703C12.56 28.0933 12.9664 29.0744 13.6897 29.7977C14.4131 30.5211 15.3942 30.9275 16.4172 30.9275ZM27.9886 30.9275C29.0116 30.9275 29.9926 30.5211 30.716 29.7977C31.4394 29.0744 31.8457 28.0933 31.8457 27.0703C31.8457 26.0473 31.4394 25.0663 30.716 24.3429C29.9926 23.6195 29.0116 23.2132 27.9886 23.2132C26.9656 23.2132 25.9845 23.6195 25.2612 24.3429C24.5378 25.0663 24.1314 26.0473 24.1314 27.0703C24.1314 28.0933 24.5378 29.0744 25.2612 29.7977C25.9845 30.5211 26.9656 30.9275 27.9886 30.9275ZM43.4172 27.0703C43.4172 28.0933 43.0108 29.0744 42.2874 29.7977C41.5641 30.5211 40.583 30.9275 39.56 30.9275C38.537 30.9275 37.556 30.5211 36.8326 29.7977C36.1092 29.0744 35.7029 28.0933 35.7029 27.0703C35.7029 26.0473 36.1092 25.0663 36.8326 24.3429C37.556 23.6195 38.537 23.2132 39.56 23.2132C40.583 23.2132 41.5641 23.6195 42.2874 24.3429C43.0108 25.0663 43.4172 26.0473 43.4172 27.0703ZM54.9886 27.0703C54.9886 41.982 42.9003 54.0703 27.9886 54.0703C13.0769 54.0703 0.988586 41.982 0.988586 27.0703C0.988586 12.1586 13.0769 0.0703125 27.9886 0.0703125C42.9003 0.0703125 54.9886 12.1586 54.9886 27.0703ZM51.1314 27.0703C51.1314 14.2897 40.7692 3.92746 27.9886 3.92746C15.2079 3.92746 4.84573 14.2897 4.84573 27.0703C4.84573 39.851 15.2079 50.2132 27.9886 50.2132C40.7692 50.2132 51.1314 39.851 51.1314 27.0703Z" fill="white"/>
</g>
<defs>
<clipPath id="clip0_120_257">
<rect width="54" height="54" fill="white" transform="translate(0.988586 0.0703125)"/>
</clipPath>
</defs>
</svg>
