<svg width="31" height="29" viewBox="0 0 31 29" fill="none" xmlns="http://www.w3.org/2000/svg">
<path d="M23.8976 12.4021C24.181 12.4021 24.454 12.4945 24.6624 12.661C24.8708 12.8274 24.9995 13.0558 25.0228 13.3006L25.0267 13.3812V21.3534C25.0265 22.1852 24.6549 22.9846 23.9897 23.5839C23.3245 24.1832 22.4174 24.5357 21.4589 24.5675L21.317 24.5703H8.73635C7.77703 24.5703 6.855 24.2481 6.1638 23.6713C5.47259 23.0944 5.06596 22.3078 5.02925 21.4765L5.02667 21.3534V13.3812C5.0268 13.1286 5.13952 12.8858 5.34126 12.7036C5.543 12.5214 5.81816 12.4138 6.10921 12.4034C6.40027 12.393 6.68469 12.4806 6.90304 12.6478C7.12139 12.815 7.25677 13.0489 7.28087 13.3006L7.28474 13.3812V21.3534C7.28486 21.6723 7.42452 21.9792 7.67552 22.2123C7.92652 22.4453 8.27014 22.587 8.63699 22.6089L8.73635 22.6122H21.317C21.6848 22.6123 22.0389 22.4912 22.3078 22.2735C22.5767 22.0559 22.7402 21.7578 22.7654 21.4396L22.7686 21.3534V13.3812C22.7686 12.8402 23.2738 12.4021 23.8976 12.4021ZM14.7034 4.57926L14.7996 4.57143L14.9125 4.57031L15.0118 4.57759L15.1267 4.59549L15.1712 4.60556C15.297 4.63577 15.4183 4.68556 15.528 4.75493L15.6054 4.80808L15.6654 4.85619L20.6834 9.20764C20.8897 9.38525 21.009 9.625 21.0166 9.87698C21.0241 10.129 20.9193 10.3738 20.7239 10.5604C20.5286 10.7471 20.2577 10.8612 19.9678 10.879C19.6778 10.8968 19.3911 10.817 19.1673 10.6561L19.0867 10.5923L15.9944 7.91083V18.696C15.9944 18.9418 15.8877 19.1786 15.6957 19.3594C15.5036 19.5401 15.2401 19.6516 14.9576 19.6717L14.8654 19.6751C14.5819 19.6751 14.3089 19.5826 14.1004 19.416C13.892 19.2495 13.7634 19.021 13.7402 18.776L13.7363 18.696V7.91306L10.6473 10.5929C10.4489 10.7649 10.1836 10.8667 9.90333 10.8784C9.62304 10.8901 9.34777 10.8108 9.13119 10.6561L9.05054 10.5923C8.85206 10.4203 8.73456 10.1903 8.72096 9.94726C8.70737 9.7042 8.79864 9.46545 8.97699 9.27758L9.05054 9.20764L14.0518 4.86962C14.088 4.83724 14.1266 4.80696 14.1673 4.77899L14.2402 4.73423C14.2647 4.71913 14.2899 4.7057 14.3163 4.69283L14.3286 4.6878C14.4449 4.63253 14.5716 4.59577 14.7028 4.57926H14.7034Z" fill="#FEFEFE"/>
</svg>
