<svg width="29" height="29" viewBox="0 0 29 29" fill="none" xmlns="http://www.w3.org/2000/svg">
<path d="M22.1473 12.3091C22.3915 12.3091 22.6269 12.4025 22.8065 12.5707C22.9862 12.7389 23.0971 12.9696 23.1172 13.217L23.1206 13.2984V21.3541C23.1204 22.1946 22.8 23.0024 22.2266 23.6079C21.6532 24.2135 20.8712 24.5697 20.045 24.6019L19.9226 24.6047H9.07738C8.25039 24.6047 7.45555 24.2791 6.85969 23.6962C6.26383 23.1133 5.91329 22.3185 5.88165 21.4785L5.87943 21.3541V13.2984C5.87954 13.0432 5.97671 12.7979 6.15062 12.6137C6.32453 12.4296 6.56173 12.3209 6.81264 12.3104C7.06354 12.2999 7.30873 12.3884 7.49696 12.5573C7.68519 12.7263 7.80189 12.9627 7.82267 13.217L7.826 13.2984V21.3541C7.82611 21.6763 7.9465 21.9865 8.16288 22.222C8.37925 22.4574 8.67548 22.6007 8.99173 22.6227L9.07738 22.6261H19.9226C20.2397 22.6261 20.545 22.5038 20.7767 22.2839C21.0085 22.0639 21.1495 21.7627 21.1712 21.4412L21.174 21.3541V13.2984C21.174 12.7518 21.6095 12.3091 22.1473 12.3091ZM14.2214 4.40435L14.3042 4.39644L14.4015 4.39531L14.4872 4.40266L14.5862 4.42075L14.6246 4.43092C14.733 4.46145 14.8376 4.51176 14.9321 4.58186L14.9989 4.63557L15.0506 4.68418L19.3765 9.08119C19.5543 9.26066 19.6571 9.50292 19.6636 9.75754C19.6701 10.0122 19.5798 10.2595 19.4114 10.4481C19.2429 10.6367 19.0094 10.752 18.7595 10.77C18.5095 10.788 18.2624 10.7074 18.0695 10.5448L17.9999 10.4803L15.3342 7.77079V18.6689C15.3342 18.9173 15.2423 19.1565 15.0767 19.3392C14.9111 19.5219 14.684 19.6345 14.4405 19.6548L14.3609 19.6582C14.1166 19.6582 13.8812 19.5647 13.7015 19.3964C13.5218 19.2281 13.411 18.9973 13.391 18.7497L13.3877 18.6689V7.77306L10.7247 10.4809C10.5537 10.6547 10.325 10.7576 10.0834 10.7694C9.84175 10.7812 9.60445 10.7011 9.41775 10.5448L9.34823 10.4803C9.17712 10.3065 9.07583 10.0742 9.06411 9.82854C9.05239 9.58294 9.13108 9.3417 9.28483 9.15185L9.34823 9.08119L13.6596 4.69775C13.6908 4.66503 13.724 4.63444 13.7592 4.60617L13.822 4.56095C13.8432 4.54568 13.8648 4.53212 13.8877 4.51911L13.8982 4.51403C13.9984 4.45817 14.1077 4.42103 14.2208 4.40435H14.2214Z" fill="black"/>
</svg>
