<svg width="31" height="30" viewBox="0 0 31 30" fill="none" xmlns="http://www.w3.org/2000/svg">
<path d="M15.25 8.83044C11.9248 8.83044 9.24121 11.4097 9.24121 14.6056C9.24121 17.8014 11.9248 20.3807 15.25 20.3807C18.5752 20.3807 21.2588 17.8014 21.2588 14.6056C21.2588 11.4097 18.5752 8.83044 15.25 8.83044ZM15.25 18.359C13.0996 18.359 11.3447 16.6723 11.3447 14.6056C11.3447 12.5388 13.0996 10.8522 15.25 10.8522C17.4004 10.8522 19.1553 12.5388 19.1553 14.6056C19.1553 16.6723 17.4004 18.359 15.25 18.359ZM21.5049 7.24799C20.7285 7.24799 20.1016 7.85056 20.1016 8.59674C20.1016 9.34291 20.7285 9.94548 21.5049 9.94548C22.2813 9.94548 22.9082 9.34573 22.9082 8.59674C22.9084 8.41955 22.8723 8.24407 22.8019 8.08033C22.7314 7.91659 22.6281 7.76782 22.4977 7.64253C22.3673 7.51724 22.2125 7.41791 22.0422 7.3502C21.8718 7.2825 21.6892 7.24777 21.5049 7.24799V7.24799ZM26.9629 14.6056C26.9629 13.0513 26.9775 11.511 26.8867 9.95956C26.7959 8.15748 26.3682 6.55813 24.9971 5.24035C23.623 3.91976 21.9619 3.51148 20.0869 3.42419C18.4697 3.3369 16.8672 3.35098 15.2529 3.35098C13.6357 3.35098 12.0332 3.3369 10.4189 3.42419C8.54395 3.51148 6.87988 3.92258 5.50879 5.24035C4.13477 6.56094 3.70996 8.15748 3.61914 9.95956C3.52832 11.5139 3.54297 13.0541 3.54297 14.6056C3.54297 16.157 3.52832 17.7001 3.61914 19.2516C3.70996 21.0536 4.1377 22.653 5.50879 23.9708C6.88281 25.2914 8.54395 25.6996 10.4189 25.7869C12.0361 25.8742 13.6387 25.8601 15.2529 25.8601C16.8701 25.8601 18.4727 25.8742 20.0869 25.7869C21.9619 25.6996 23.626 25.2885 24.9971 23.9708C26.3711 22.6502 26.7959 21.0536 26.8867 19.2516C26.9805 17.7001 26.9629 16.1599 26.9629 14.6056V14.6056ZM24.3848 21.2451C24.1709 21.7576 23.9131 22.1405 23.5 22.5347C23.0869 22.9318 22.6914 23.1795 22.1582 23.3851C20.6172 23.9736 16.958 23.8412 15.25 23.8412C13.542 23.8412 9.87988 23.9736 8.33887 23.3879C7.80567 23.1824 7.40723 22.9346 6.99707 22.5376C6.58399 22.1405 6.32617 21.7604 6.11231 21.2479C5.50293 19.764 5.64063 16.2471 5.64063 14.6056C5.64063 12.964 5.50293 9.44428 6.11231 7.96319C6.32617 7.45072 6.58399 7.06778 6.99707 6.67357C7.41016 6.27937 7.80567 6.02877 8.33887 5.82322C9.87988 5.23754 13.542 5.36988 15.25 5.36988C16.958 5.36988 20.6201 5.23754 22.1611 5.82322C22.6943 6.02877 23.0928 6.27655 23.5029 6.67357C23.916 7.0706 24.1738 7.45072 24.3877 7.96319C24.9971 9.44428 24.8594 12.964 24.8594 14.6056C24.8594 16.2471 24.9971 19.764 24.3848 21.2451Z" fill="white"/>
</svg>
