<svg width="22" height="21" viewBox="0 0 22 21" fill="none" xmlns="http://www.w3.org/2000/svg">
<path d="M20.8078 9.86658L11.1539 0.219707C11.0844 0.150061 11.0018 0.0948059 10.9109 0.0571057C10.8201 0.0194055 10.7226 0 10.6242 0C10.5258 0 10.4284 0.0194055 10.3375 0.0571057C10.2466 0.0948059 10.164 0.150061 10.0945 0.219707L0.440625 9.86658C0.159375 10.1478 0 10.5299 0 10.9283C0 11.7556 0.672656 12.4283 1.5 12.4283H2.51719V19.3119C2.51719 19.7267 2.85234 20.0619 3.26719 20.0619H9.12422V14.8119H11.7492V20.0619H17.9813C18.3961 20.0619 18.7313 19.7267 18.7313 19.3119V12.4283H19.7484C20.1469 12.4283 20.5289 12.2713 20.8102 11.9877C21.3937 11.4017 21.3937 10.4525 20.8078 9.86658V9.86658Z" fill="black"/>
</svg>
