<svg width="29" height="20" viewBox="0 0 29 20" fill="none" xmlns="http://www.w3.org/2000/svg">
<path d="M5.5625 10.9375C5.5625 11.1861 5.46373 11.4246 5.28791 11.6004C5.1121 11.7762 4.87364 11.875 4.625 11.875H1.8125C1.56386 11.875 1.3254 11.7762 1.14959 11.6004C0.973772 11.4246 0.875 11.1861 0.875 10.9375C0.875 10.6889 0.973772 10.4504 1.14959 10.2746C1.3254 10.0988 1.56386 10 1.8125 10H2.75V2.5H1.8125C1.56386 2.5 1.3254 2.40123 1.14959 2.22541C0.973772 2.0496 0.875 1.81114 0.875 1.5625C0.875 1.31386 0.973772 1.0754 1.14959 0.899588C1.3254 0.723772 1.56386 0.625 1.8125 0.625H3.6875C3.84726 0.625176 4.00433 0.666179 4.1438 0.744115C4.28326 0.822052 4.4005 0.934336 4.48437 1.07031L8.375 7.29297L12.2656 1.07031C12.3495 0.934336 12.4667 0.822052 12.6062 0.744115C12.7457 0.666179 12.9027 0.625176 13.0625 0.625H14.9375C15.1861 0.625 15.4246 0.723772 15.6004 0.899588C15.7762 1.0754 15.875 1.31386 15.875 1.5625C15.875 1.81114 15.7762 2.0496 15.6004 2.22541C15.4246 2.40123 15.1861 2.5 14.9375 2.5H14V10H14.9375C15.1861 10 15.4246 10.0988 15.6004 10.2746C15.7762 10.4504 15.875 10.6889 15.875 10.9375C15.875 11.1861 15.7762 11.4246 15.6004 11.6004C15.4246 11.7762 15.1861 11.875 14.9375 11.875H12.125C11.8764 11.875 11.6379 11.7762 11.4621 11.6004C11.2863 11.4246 11.1875 11.1861 11.1875 10.9375C11.1875 10.6889 11.2863 10.4504 11.4621 10.2746C11.6379 10.0988 11.8764 10 12.125 10V4.83203L9.17188 9.55469C9.0878 9.69035 8.97047 9.80231 8.83102 9.87994C8.69157 9.95758 8.53461 9.99833 8.375 9.99833C8.21539 9.99833 8.05843 9.95758 7.91898 9.87994C7.77953 9.80231 7.6622 9.69035 7.57812 9.55469L4.625 4.83203V10C4.87364 10 5.1121 10.0988 5.28791 10.2746C5.46373 10.4504 5.5625 10.6889 5.5625 10.9375ZM18.6875 8.125H27.125C27.3736 8.125 27.6121 8.02623 27.7879 7.85041C27.9637 7.6746 28.0625 7.43614 28.0625 7.1875C28.0625 6.93886 27.9637 6.7004 27.7879 6.52459C27.6121 6.34877 27.3736 6.25 27.125 6.25H18.6875C18.4389 6.25 18.2004 6.34877 18.0246 6.52459C17.8488 6.7004 17.75 6.93886 17.75 7.1875C17.75 7.43614 17.8488 7.6746 18.0246 7.85041C18.2004 8.02623 18.4389 8.125 18.6875 8.125ZM27.125 10H18.6875C18.4389 10 18.2004 10.0988 18.0246 10.2746C17.8488 10.4504 17.75 10.6889 17.75 10.9375C17.75 11.1861 17.8488 11.4246 18.0246 11.6004C18.2004 11.7762 18.4389 11.875 18.6875 11.875H27.125C27.3736 11.875 27.6121 11.7762 27.7879 11.6004C27.9637 11.4246 28.0625 11.1861 28.0625 10.9375C28.0625 10.6889 27.9637 10.4504 27.7879 10.2746C27.6121 10.0988 27.3736 10 27.125 10ZM27.125 13.75H7.4375C7.18886 13.75 6.9504 13.8488 6.77459 14.0246C6.59877 14.2004 6.5 14.4389 6.5 14.6875C6.5 14.9361 6.59877 15.1746 6.77459 15.3504C6.9504 15.5262 7.18886 15.625 7.4375 15.625H27.125C27.3736 15.625 27.6121 15.5262 27.7879 15.3504C27.9637 15.1746 28.0625 14.9361 28.0625 14.6875C28.0625 14.4389 27.9637 14.2004 27.7879 14.0246C27.6121 13.8488 27.3736 13.75 27.125 13.75ZM27.125 17.5H7.4375C7.18886 17.5 6.9504 17.5988 6.77459 17.7746C6.59877 17.9504 6.5 18.1889 6.5 18.4375C6.5 18.6861 6.59877 18.9246 6.77459 19.1004C6.9504 19.2762 7.18886 19.375 7.4375 19.375H27.125C27.3736 19.375 27.6121 19.2762 27.7879 19.1004C27.9637 18.9246 28.0625 18.6861 28.0625 18.4375C28.0625 18.1889 27.9637 17.9504 27.7879 17.7746C27.6121 17.5988 27.3736 17.5 27.125 17.5Z" fill="black"/>
</svg>
